<svg width="25" height="26" viewBox="0 0 25 26" fill="none" xmlns="http://www.w3.org/2000/svg">
<path fill-rule="evenodd" clip-rule="evenodd" d="M21.9789 0C23.6464 0 25.0002 1.38609 25.0002 3.09331V22.2252C25.0002 23.9324 23.6464 25.3185 21.9789 25.3185H16.8364V15.7788H20.0532L20.6653 11.6932H16.8364V9.04183C16.8364 7.92411 17.3713 6.83457 19.0863 6.83457H20.8271V3.35624C20.8271 3.35624 19.2472 3.08021 17.7367 3.08021C14.5833 3.08021 12.5223 5.0369 12.5223 8.57927V11.6932H9.01696V15.7788H12.5223V25.3185H3.29188C1.62436 25.3185 0.270508 23.9324 0.270508 22.2252V3.09331C0.270508 1.38609 1.62432 0 3.29188 0L21.9789 0Z" fill="#D1D0D0"/>
</svg>
