<svg width="25" height="26" viewBox="0 0 25 26" fill="none" xmlns="http://www.w3.org/2000/svg">
<path d="M12.3649 0C9.00678 0 8.58569 0.0145879 7.26685 0.0762032C5.95076 0.13767 5.05189 0.351642 4.26536 0.664614C3.45227 0.988119 2.76269 1.42101 2.07533 2.12479C1.38791 2.82852 0.965091 3.53452 0.64911 4.36697C0.343416 5.17217 0.13442 6.09244 0.0743827 7.43987C0.0142003 8.79012 0 9.22122 0 12.6593C0 16.0973 0.0142003 16.5284 0.0743827 17.8787C0.13442 19.2261 0.343416 20.1464 0.64911 20.9516C0.965091 21.784 1.38791 22.49 2.07533 23.1938C2.76269 23.8976 3.45227 24.3305 4.26536 24.654C5.05189 24.9669 5.95076 25.1809 7.26685 25.2424C8.58569 25.3039 9.00678 25.3185 12.3649 25.3185C15.723 25.3185 16.144 25.3039 17.4629 25.2424C18.779 25.1809 19.6778 24.9669 20.4643 24.654C21.2774 24.3305 21.967 23.8976 22.6545 23.1938C23.3418 22.49 23.7646 21.784 24.0806 20.9516C24.3863 20.1464 24.5953 19.2261 24.6553 17.8787C24.7155 16.5284 24.7297 16.0973 24.7297 12.6593C24.7297 9.22122 24.7155 8.79012 24.6553 7.43987C24.5953 6.09244 24.3863 5.17217 24.0806 4.36697C23.7646 3.53452 23.3418 2.82852 22.6545 2.12479C21.967 1.42101 21.2774 0.988119 20.4643 0.664614C19.6778 0.351642 18.779 0.13767 17.4629 0.0762032C16.144 0.0145879 15.723 0 12.3649 0V0ZM12.3649 2.281C15.6664 2.281 16.0575 2.29386 17.3614 2.35478C18.5669 2.41111 19.2216 2.61731 19.6573 2.79064C20.2345 3.02029 20.6464 3.29464 21.079 3.73761C21.5118 4.18059 21.7797 4.60235 22.004 5.19319C22.1733 5.63928 22.3747 6.30958 22.4298 7.54381C22.4892 8.87873 22.5018 9.27913 22.5018 12.6593C22.5018 16.0395 22.4892 16.4399 22.4298 17.7747C22.3747 19.009 22.1733 19.6793 22.004 20.1253C21.7797 20.7162 21.5118 21.1379 21.079 21.5809C20.6464 22.0239 20.2345 22.2982 19.6573 22.5279C19.2216 22.7013 18.5669 22.9075 17.3614 22.9638C16.0577 23.0247 15.6667 23.0376 12.3649 23.0376C9.06305 23.0376 8.6721 23.0247 7.36838 22.9638C6.16285 22.9075 5.50813 22.7013 5.07242 22.5279C4.49527 22.2982 4.08337 22.0239 3.65064 21.5809C3.21797 21.1379 2.95 20.7162 2.72574 20.1253C2.5564 19.6793 2.35498 19.009 2.29997 17.7747C2.24046 16.4399 2.22791 16.0395 2.22791 12.6593C2.22791 9.27913 2.24046 8.87873 2.29997 7.54381C2.35498 6.30958 2.5564 5.63928 2.72574 5.19319C2.95 4.60235 3.21797 4.18059 3.65064 3.73761C4.08337 3.29464 4.49527 3.02029 5.07242 2.79064C5.50813 2.61731 6.16285 2.41111 7.36838 2.35478C8.67225 2.29386 9.06334 2.281 12.3649 2.281Z" fill="#D1D0D0"/>
<path d="M12.3628 16.8767C10.0864 16.8767 8.24109 14.9875 8.24109 12.657C8.24109 10.3265 10.0864 8.4372 12.3628 8.4372C14.639 8.4372 16.4843 10.3265 16.4843 12.657C16.4843 14.9875 14.639 16.8767 12.3628 16.8767ZM12.3628 6.15625C8.85595 6.15625 6.01318 9.06671 6.01318 12.657C6.01318 16.2472 8.85595 19.1577 12.3628 19.1577C15.8695 19.1577 18.7122 16.2472 18.7122 12.657C18.7122 9.06671 15.8695 6.15625 12.3628 6.15625Z" fill="#D1D0D0"/>
<path d="M20.4461 5.89504C20.4461 6.73407 19.7817 7.41416 18.9623 7.41416C18.1428 7.41416 17.4785 6.73407 17.4785 5.89504C17.4785 5.05607 18.1428 4.37598 18.9623 4.37598C19.7817 4.37598 20.4461 5.05607 20.4461 5.89504Z" fill="#D1D0D0"/>
</svg>
