<svg width="26" height="26" viewBox="0 0 26 26" fill="none" xmlns="http://www.w3.org/2000/svg">
<path d="M8.41227 25.3185C17.7443 25.3185 22.8485 15.5769 22.8485 7.12897C22.8485 6.85231 22.8485 6.57687 22.8337 6.30264C23.8266 5.39762 24.6838 4.27717 25.365 2.99355C24.439 3.51054 23.4566 3.84952 22.4508 3.99935C23.5098 3.20065 24.3028 1.94344 24.6814 0.463373C23.6855 1.20797 22.5958 1.73281 21.4597 2.01513C20.5003 0.729749 19.1605 0 17.7602 0C14.9742 0 12.6817 2.88857 12.6817 6.39886C12.6817 6.88585 12.7258 7.37131 12.8131 7.84564C8.73574 7.58815 4.93151 5.15809 2.35643 1.16634C1.01736 4.07086 1.71022 7.83493 3.92725 9.70023C3.11992 9.6701 2.32992 9.39563 1.62444 8.90006V8.98107C1.62512 12.0126 3.33654 14.6476 5.69495 15.2479C4.94803 15.5045 4.16417 15.542 3.40402 15.3575C4.06704 17.9553 5.97895 19.7459 8.14421 19.7971C6.34792 21.5758 4.1277 22.542 1.84305 22.5391C1.43936 22.5382 1.03605 22.5074 0.635254 22.4469C2.95531 24.3228 5.65558 25.3182 8.41227 25.3135" fill="#D1D0D0"/>
</svg>
