<?xml version="1.0" encoding="utf-8"?>
<!-- Generator: Adobe Illustrator 21.0.0, SVG Export Plug-In . SVG Version: 6.00 Build 0)  -->
<svg version="1.1" id="Layer_2" xmlns="http://www.w3.org/2000/svg" xmlns:xlink="http://www.w3.org/1999/xlink" x="0px" y="0px"
	 viewBox="0 0 693.5 422.1" style="enable-background:new 0 0 693.5 422.1;" xml:space="preserve">
<style type="text/css">
	.st0{fill:#EF9A99;}
	.st1{fill:#1FC0C7;}
	.st2{fill:#FFFFFF;}
</style>
<g>
	<g>
		<path class="st0" d="M424.9,238c3,0,5.4,1,7.4,3.1c2,2.1,3,4.6,3,7.7s-1,5.6-3,7.7c-2,2.1-4.4,3.1-7.4,3.1h-8.6V238H424.9z
			 M424.9,255.5c1.9,0,3.4-0.6,4.6-1.8c1.2-1.3,1.8-2.9,1.8-4.9s-0.6-3.6-1.8-4.8c-1.2-1.3-2.7-1.9-4.6-1.9h-4.3v13.4H424.9z"/>
		<path class="st0" d="M447.2,255.5h9.1v4.1h-13.3V238h13.2v4.1h-8.9v4.6h8.2v4h-8.2V255.5z"/>
		<path class="st0" d="M462.7,254.6l3.6-2.1c0.8,2.2,2.5,3.3,5,3.3c2.4,0,3.4-1,3.4-2.3c0-0.8-0.3-1.4-1-1.8
			c-0.7-0.4-1.9-0.9-3.6-1.4c-1.9-0.6-3.1-1-4.5-2c-1.3-1-2-2.5-2-4.4c0-1.9,0.7-3.5,2.1-4.6c1.4-1.2,3.1-1.8,5-1.8
			c3.5,0,6.2,1.8,7.7,4.8l-3.6,2.1c-0.9-1.8-2.2-2.8-4.1-2.8c-1.8,0-2.8,0.9-2.8,2.2c0,0.7,0.3,1.2,0.8,1.7c0.6,0.4,1.7,0.9,3.3,1.4
			l1.5,0.5c0.3,0.1,0.8,0.3,1.4,0.5c0.6,0.2,1,0.4,1.4,0.6c0.6,0.4,1.6,1.2,2,1.9c0.5,0.7,0.8,1.8,0.8,3c0,2-0.7,3.6-2.2,4.7
			c-1.4,1.2-3.3,1.8-5.6,1.8C466.9,260,463.9,257.9,462.7,254.6z"/>
		<path class="st0" d="M484.6,254.6l3.6-2.1c0.8,2.2,2.5,3.3,5,3.3c2.4,0,3.4-1,3.4-2.3c0-0.8-0.3-1.4-1-1.8
			c-0.7-0.4-1.9-0.9-3.6-1.4c-1.9-0.6-3.1-1-4.5-2c-1.3-1-2-2.5-2-4.4c0-1.9,0.7-3.5,2.1-4.6c1.4-1.2,3.1-1.8,5-1.8
			c3.5,0,6.2,1.8,7.7,4.8l-3.6,2.1c-0.9-1.8-2.2-2.8-4.1-2.8c-1.8,0-2.8,0.9-2.8,2.2c0,0.7,0.3,1.2,0.8,1.7c0.6,0.4,1.7,0.9,3.3,1.4
			l1.5,0.5c0.3,0.1,0.8,0.3,1.4,0.5c0.6,0.2,1,0.4,1.4,0.6c0.6,0.4,1.6,1.2,2,1.9c0.5,0.7,0.8,1.8,0.8,3c0,2-0.7,3.6-2.2,4.7
			c-1.4,1.2-3.3,1.8-5.6,1.8C488.8,260,485.8,257.9,484.6,254.6z"/>
		<path class="st0" d="M512.4,255.5h9.1v4.1h-13.3V238h13.2v4.1h-8.9v4.6h8.2v4h-8.2V255.5z"/>
		<path class="st0" d="M540.9,259.5l-4.3-7.5h-3.2v7.5h-4.2V238h8.6c2,0,3.7,0.7,5.1,2.1s2.1,3.1,2.1,5c0,2.7-1.7,5.1-4.2,6.3
			l4.8,8.1H540.9z M533.3,242v6.4h4.4c1.6,0,2.9-1.4,2.9-3.2s-1.3-3.2-2.9-3.2H533.3z"/>
		<path class="st0" d="M566.3,238v4.1h-5.8v17.5h-4.2v-17.5h-5.8V238H566.3z"/>
		<path class="st0" d="M571.6,254.6l3.6-2.1c0.8,2.2,2.5,3.3,5,3.3c2.4,0,3.4-1,3.4-2.3c0-0.8-0.3-1.4-1-1.8
			c-0.7-0.4-1.9-0.9-3.6-1.4c-1.9-0.6-3.1-1-4.5-2c-1.3-1-2-2.5-2-4.4c0-1.9,0.7-3.5,2.1-4.6c1.4-1.2,3.1-1.8,5-1.8
			c3.5,0,6.2,1.8,7.7,4.8l-3.6,2.1c-0.9-1.8-2.2-2.8-4.1-2.8c-1.8,0-2.8,0.9-2.8,2.2c0,0.7,0.3,1.2,0.8,1.7c0.6,0.4,1.7,0.9,3.3,1.4
			l1.5,0.5c0.3,0.1,0.8,0.3,1.4,0.5c0.6,0.2,1,0.4,1.4,0.6c0.6,0.4,1.6,1.2,2,1.9c0.5,0.7,0.8,1.8,0.8,3c0,2-0.7,3.6-2.2,4.7
			c-1.4,1.2-3.3,1.8-5.6,1.8C575.8,260,572.8,257.9,571.6,254.6z"/>
	</g>
	<path class="st0" d="M465,110.5c1.8-6.7,6-12.3,11.3-16c5.3-3.6,11.6-4.8,17.4-3.1c2.8,0.9,5.5,2.2,7.8,4.1c2.2,1.9,4,4.5,5,6.9
		c2,5,0.9,11.2-2.9,15.3c-1.9,2.1-4.2,3.5-6.8,4c-2.6,0.4-5.4,0-7.8-1.3c-2.4-1.4-4.4-3.7-5.1-6.2c-0.8-2.6-0.3-5.7,1.4-8.1
		c1.7-2.5,4.5-4.2,7.8-4c3.2,0.2,6.7,2.3,7.9,5.9c-0.1-3.9-3.2-7.6-7.4-8.8c-2.1-0.7-4.4-0.6-6.6,0c-2.2,0.7-4.1,1.9-5.8,3.5
		c-3.2,3.2-4.9,8.1-4.3,12.9c0.3,2.4,1.2,4.8,2.5,6.7c1.3,2,2.9,3.7,4.8,5.1c3.8,2.9,8.8,4.3,13.7,3.7c4.9-0.5,9.5-2.9,12.8-6.2
		c3.4-3.3,5.8-7.7,6.8-12.3c1-4.7,0.6-9.6-1.1-14.1c-3.7-8.8-11.5-15-20.4-17c-8.8-2-18.6,0.5-25,6.4c-6.6,5.5-10.6,13.6-11.4,21.7
		c-0.7,8.1,1.8,16.3,6.8,22.1C463.6,124.6,463,117.1,465,110.5z"/>
	<path class="st1" d="M351.7,208.6c-1.3,0.6-2.5,0.9-3.8,0.9c-0.7,0-1.3-0.1-1.8-0.3c-1.3-0.4-2.3-1.3-3.1-2.8
		c-1.1-2-1.6-4.9-1.6-8.6c0-20,15.1-53.9,26.5-53.9c2.3,0,3.9,1.2,4.9,3.7c0.1,0.2,0.1,0.4,0.2,0.6c-3.6,0.9-7.2,3.5-7.8,8.8
		c0,0,0,0,0,0c0,0.3-0.1,0.7-0.1,1.1c0,3.3,1.5,9.6,6.8,13.4C368.3,187.9,360.2,204.6,351.7,208.6z M525,208.4
		c-1.2,0.6-2.5,0.8-3.7,0.8c-0.7,0-1.3-0.1-1.8-0.3c-1.3-0.4-2.3-1.3-3.1-2.8c-1.1-2-1.6-4.9-1.6-8.7c0-19.9,15-53.6,26.4-53.6
		c2.1,0,3.6,1.1,4.7,3.3c0,0.1,0.1,0.2,0.2,0.4c0.1,0.3,0.3,0.7,0.4,1.1c0.7,2.1,1,4.7,1,7.9C547.3,174.2,536.8,203.1,525,208.4z
		 M608.9,162.3C608.9,162.3,608.9,162.2,608.9,162.3c-0.8-1.2-1.7-2.1-2.7-2.9c-1.4-1.1-2.8-1.9-3.9-2.3c-1.7-0.7-3.5-1.1-5.4-1.1h0
		c-0.5,0-1,0-1.4,0c-1,0.1-1.9,0.3-3,0.8c-5,1.8-8.4,6.7-8.4,12.1c0,7.1,5.8,12.9,12.9,12.9c3,0,5.9-1.1,8.2-3c-0.2,2-0.6,4-1.2,5.9
		v0c0,0.1,0,0.2-0.1,0.3c-4.7,14.3-20.9,26.8-33.2,26.8h-0.1c-2.8,0-5.1-0.5-6.9-1.6h0c-0.8-0.4-1.5-1-2.2-1.7
		c-2.3-2.4-3.2-6.2-2.9-11.3c0.4-5.5,1.9-15.9,7.3-34l0.1-0.3c1.9-6.5,4.1-13.8,6.2-20.6c0.2-0.6,0.5-1.5,0.7-2.4
		c0.2-0.9,0.5-1.8,0.7-2.3l0.4-1.2l-1.3,0.1c-3.8,0.5-6.8,0.5-9,0.6c-6.2,0.2-8.1,0.4-10.2,6.8c-3.3-5.7-8.6-8.6-15.6-8.6
		c-8.1,0-16.1,4.5-23.3,13.2c-11.8,14.2-18.6,36.5-15.9,52c-1.3,2.5-3,5.2-5.2,7c-1.5,1.3-3.3,2.1-5.3,2.1h-0.1
		c-1,0-1.8-0.4-2.5-1.3c-2.4-3.2-3.4-13.7,5.8-45.1l0.6-2c1.8-6,3.8-12.5,5.7-18.7c0.2-0.5,0.4-1.3,0.6-2.2c0.3-1,0.5-2,0.7-2.6
		l0.5-1.3l-1.4,0.2c-3.7,0.5-6.6,0.6-8.9,0.6c-6.5,0.1-8.5,0.5-10.8,8.5c-1.8,6.2-3.5,12.5-5.1,18.2l-0.8,3
		c-0.1,0.3-0.2,0.6-0.3,0.9c0,0,0,0,0,0c-1.5,5.4-3.3,12.3-4.3,19.1c0,0,0,0,0,0c-0.7,4.7-1.1,9.3-0.7,13.5
		c-0.4,0.8-0.9,1.6-1.5,2.4c-3.5,4.8-8.3,7.5-13,9.1h0c-2.5,0.8-5,1.3-7.4,1.6c-3.1,0.4-5.9,0.3-8.2,0.2c18.4-11.8,29.7-44.5,25-63
		c-0.8-3.3-2.1-6.1-3.7-8.3c0,0,0,0,0,0c-1-1.3-2.1-2.5-3.3-3.4c-3.1-2.4-7.1-3.6-11.9-3.6c-5.6,0-11.3,2.2-16.6,6.4v-0.1
		c0.1-0.4,0.3-1.1,0.5-1.9c0.2-0.8,0.4-1.7,0.5-2.3l0.3-1.1l-1.2,0.1c-4,0.5-7,0.6-9.4,0.6c-6.6,0.1-8.4,0.4-10.7,8.6
		c-1.4,5.4-2.8,10.7-4.2,16c-1.9,1.2-3.8,2.3-5.8,3.1c-1.9,0.8-3.8,1.3-5.8,1.7c-1,0.2-1.9,0.3-2.9,0.4H387c1-9.9-0.8-18.2-5-23.7v0
		c-0.3-0.4-0.6-0.8-1-1.1c-1-1.1-2-2-3.2-2.8c-3.5-2.5-8-3.7-13.3-3.7h-0.3c-7.9,0-15.8,4.5-22.9,12.9
		c-11.8,14.1-18.7,36.4-16.1,51.9c0.1,0.9,0.3,1.7,0.6,2.6c-2.3,2.1-4.9,3.7-7.5,4.4c-1.1,0.3-2.1,0.5-3.1,0.5c-1,0-1.8-0.1-2.6-0.4
		h0v0c-1-0.3-1.9-0.9-2.6-1.8c-6-8.2,2.4-37.1,12.9-71.3c0.4-1.2,0.7-2.3,1.1-3.5h0.9c5-0.1,48.8,1.5,65.3-15.1c3-3,5.1-6.3,6-9.7
		c0.1-0.3,0.2-0.7,0.3-1c0,0,0,0,0-0.1c0.2-0.7,0.2-1.5,0.2-2.3c0-2.4-0.7-4.6-1.9-6.4c0,0,0,0,0,0c-0.4-0.7-0.9-1.3-1.5-1.8
		c-2.1-2.2-5.1-3.5-8.4-3.5c-6.5,0-11.8,5.3-11.8,11.8c0,4.4,2.5,8.3,6.1,10.3c1.5,0.8,3.1,1.3,4.9,1.4c-11.1,8.6-34.5,9.6-47.7,9.6
		c-2.3,0-4.2,0-5.8-0.1c-1.8,0-3-0.1-3.5-0.1h-1.1l0.6-1.8l2.3-7c1.3-4.1,3.1-9.8,4.5-14.1c0.7-2.1,1.3-3.9,1.7-5l0.4-1.2l-1.3,0.2
		c-17.3,2.1-17.7,3.1-22.4,16.4c-0.4,1.2-0.8,2.4-1.3,3.8l-2.3,7.7c-0.1,0.4-0.3,0.8-0.4,1.2H307c-0.8,0-1.4,0-2,0
		c-3.3,0-3.8,0.4-5.3,3.2c-0.4,0.7-0.8,1.5-1.5,2.6l-0.8,1.3h8.1c-0.3,0.8-0.5,1.6-0.8,2.5c-0.1,0.3-0.2,0.7-0.3,1
		c-6.3,20.2-13.9,44.9-12.8,61.9c-0.4,0.8-0.7,1.6-1.1,2.4c-1.3,2.6-3.1,5.5-5.3,7.4c-1.5,1.3-3.2,2.1-5.2,2.1c-0.1,0-0.1,0-0.2,0
		c-1-0.1-1.8-0.5-2.5-1.4c-3.5-4.6-1.5-19.5,5.6-44.1l0.2-0.9c5.3-18.4,11.8-39.6,15-49.2c0.5-1.7,1.1-3.2,1.5-4l0.7-1.4L299,107
		c-3.9,0.5-7,0.5-9.3,0.6c-6.5,0.1-8.7,0.2-11.4,8.5c-3.7,12.2-8.9,30.2-13.3,46.1c-0.3,1-0.6,2.2-0.9,3.4c-1.8,6.7-4,15.1-4.8,23.3
		c-3.8,7.6-13,16.7-20.2,18.6c-0.8,0.2-1.6,0.3-2.4,0.4c-1.4,0-2.6-0.3-3.6-0.7c-2.7-1.2-4.2-3.8-4.5-7.6
		c-0.9-10.4,4.3-28.3,6.5-35.9l0.6-2.2c3.7-12.2,9.6-31.1,13.9-44.9l3.1-9.9l0.2-0.8l0.7-2.1l-0.9-0.1c-21.3-3.2-43.4-5.4-60.1,5.3
		c-12.5,7.8-13.8,20.5-13.8,25.6c0,15.1,9.6,19,14.7,19c0.1,0,0.3,0,0.4,0c7.1,0,12.8-5.9,12.8-12.9c0-2.6-0.8-5.1-2.2-7.1
		c-0.5-0.8-1.2-1.5-1.9-2.2c-1.4-1.3-3.1-2.3-5-2.9c-1.2-0.4-2.5-0.6-3.8-0.6c-0.6,0-1.1,0-1.7,0.1c-2.2,0.3-4.3,1.2-6,2.5
		c0.4-3.4,2.3-6.4,5.7-9c9.6-6.9,27-6.7,39.7-5.8c-3.8,12.1-10.4,34.6-13.7,46.6c-0.3,1.1-0.6,2.3-0.9,3.5c-2.5,9-5.8,21.2-5,31.8
		c0.9,13.5,10.6,18.6,19.4,18.7h0.9c9.4,0,19.8-5.6,27.2-14.7c0.4,2.1,0.9,3.9,1.7,5.6c0.6,1.3,1.3,2.5,2.1,3.6
		c2.8,3.5,7,5.4,12.5,5.6c7,0.4,13.1-3.2,18-10.4c0.7,1.8,1.6,3.3,2.7,4.6c0.9,1.1,1.9,2,3,2.8c2.9,2,6.5,3,11,3
		c6.4,0,13-2.4,18.3-6.8c0.9,1.5,1.9,2.7,3.1,3.8c0.5,0.4,1,0.8,1.5,1.2h0c3.1,2.3,6.9,3.4,11.4,3.4h0.2c20.2-0.2,36-22.4,40.8-43.3
		c5-0.5,10-1.9,14.4-4c-0.5,1.8-1,3.7-1.5,5.5c-0.1,0.5-0.3,1.1-0.4,1.6c-7.9,29.3-15,52.9-22.7,75.6c-21.3,62.8-59,76.8-86.9,77.5
		c-9.9,0.2-19.9-1.3-29.1-4.2c0,0,0,0,0,0h0c-11.7-3.7-22.3-9.6-30.4-17c0,0,0,0,0,0c0,0,0,0,0,0c0,0,0,0-0.1-0.1
		c-2.3-2.1-4.4-4.3-6.2-6.7c-22.2-28.3-8.5-73.5,50.3-75.4c23.9-0.6,40.6,9,46.1,18.2c2.6,4.4,2.9,8.6,0.8,12.4
		c-2.5,4.3-10.2,11.5-35.3,11.7c-16.9,0.2-34.6-3.4-58.4-9.7c0,0,0,0,0,0c-1.7-0.4-3.4-0.9-5.1-1.4c-1.1,2-2,4.1-2.7,6.3
		c1.3,0.4,2.6,0.7,3.9,1c0.5,0.1,1,0.3,1.5,0.4c27.6,7.2,49,10.7,65.8,10.7c19.2,0,33.3-5.7,39-15.6c3.4-6,3.1-13.2-0.7-19.6
		c-0.7-1.1-1.5-2.3-2.5-3.4c0,0,0,0,0,0c-3.1-3.7-7.7-7.2-13.8-10.1c0,0,0,0,0,0c-9.1-4.3-21.5-7.2-37.6-6.7
		c-32.1,0.9-55.6,13.2-64.7,33.8l-2.5-0.7c-19.4-5.6-55.4-16.1-83.7-16.1c-12.4,0-41.4,2.5-41.4,25.9c0,5.1,1.7,9.5,4.8,12.3
		c7.8,7,23.2,2.9,23.2-9.6c0-2.7-0.8-5.2-2.2-7.2c-1-1.5-2.4-2.8-4-3.8c-1.5-0.9-3.1-1.5-4.9-1.8c5.2-7.5,17.6-8.9,24.8-9
		c0.7,0,1.3,0,2,0c24.8,0,58.2,9.6,76.4,14.8c2.1,0.6,3.9,1.1,5.6,1.6c-4.8,17.4-1.7,34,8.8,48c14.7,19.6,42.5,31.8,72.5,31.8
		c23.2,0,80-8.6,106.5-88.5c10.3-30.8,18.6-61.2,25.9-89.5l0.3-0.5c5-11.3,12.6-18.9,19-18.9c2.2,0,3.8,0.9,4.9,2.9
		c0.1,0.3,0.3,0.5,0.4,0.8c0.1,0.2,0.1,0.4,0.2,0.5c0.7,1.8,1,4.2,1,7c0,17.5-12.5,47-23.4,53.2c-0.8,0.5-1.6,0.8-2.4,1h0
		c-0.5,0.1-1,0.2-1.4,0.2c-0.3,0-0.5,0-0.8-0.1c-0.3,0-0.5-0.1-0.7-0.2c-0.6-0.2-1.2-0.5-1.7-1c-0.8-0.7-1.5-1.8-2.1-3.2l0-0.1
		l-0.3-0.9l-0.9,0.7c-2.5,1.8-2.7,3.8-2.6,5.2c0.2,1.2,0.7,2.3,1.5,3.3c0.8,1,1.8,1.9,3,2.7c1.2,0.8,2.4,1.5,3.7,1.9
		c13.6,5.3,38,5.9,51-9c0.7,1.6,1.7,3,2.8,4.2c0.7,0.7,1.4,1.4,2.2,1.9c0,0,0,0,0,0c2.5,1.8,5.7,2.7,9.5,2.9
		c6.8,0.4,12.8-2.9,17.5-9.5c0.8,1.6,1.8,2.9,3,4.1c0.6,0.7,1.3,1.3,2.1,1.8c0,0,0,0,0,0c3.1,2.3,7.1,3.5,11.7,3.5
		c10.5,0,18.8-7.8,24.2-14.9c0.4,2,1,3.9,1.8,5.6c0.6,1.4,1.4,2.6,2.3,3.8c3.9,4.9,10,7.6,18.1,7.6c21.3,0,47.5-21.4,47.5-46.3
		C612,168.5,610.7,164.8,608.9,162.3z"/>
</g>
</svg>
